<svg xmlns="http://www.w3.org/2000/svg" viewBox="0 0 760 334" role="img" aria-label="6 carriers' statuses filed under out_for_delivery">
  <style>text { font: 13px -apple-system, BlinkMacSystemFont, 'Segoe UI', 'Noto Sans', Helvetica, Arial, sans-serif; } .mono { font: 12px ui-monospace, SFMono-Regular, Menlo, Consolas, 'Liberation Mono', monospace; }</style>
  <path d="M500 16C550 16 536 116 586 116" fill="none" stroke="#9aa2ab" stroke-width="1.5"/>
  <rect x=".5" y="0.5" width="499" height="31" rx="8" fill="#f6f8fa" stroke="#d1d9e0"/>
  <text x="14" y="20.5" fill="#59636e" style="font-size: 12px">DHL</text>
  <text x="156" y="20.5" fill="#1f2328">Die Sendung wurde in das Zustellfahrzeug geladen.</text>
  <path d="M500 56C550 56 536 116 586 116" fill="none" stroke="#9aa2ab" stroke-width="1.5"/>
  <rect x=".5" y="40.5" width="499" height="31" rx="8" fill="#f6f8fa" stroke="#d1d9e0"/>
  <text x="14" y="60.5" fill="#59636e" style="font-size: 12px">Mondial Relay</text>
  <text x="156" y="60.5" fill="#1f2328">En cours de livraison</text>
  <path d="M500 96C550 96 536 116 586 116" fill="none" stroke="#9aa2ab" stroke-width="1.5"/>
  <rect x=".5" y="80.5" width="499" height="31" rx="8" fill="#f6f8fa" stroke="#d1d9e0"/>
  <text x="14" y="100.5" fill="#59636e" style="font-size: 12px">Correios Brazil</text>
  <text x="156" y="100.5" fill="#1f2328">Objeto saiu para entrega ao destinatário</text>
  <path d="M500 136C550 136 536 116 586 116" fill="none" stroke="#9aa2ab" stroke-width="1.5"/>
  <rect x=".5" y="120.5" width="499" height="31" rx="8" fill="#f6f8fa" stroke="#d1d9e0"/>
  <text x="14" y="140.5" fill="#59636e" style="font-size: 12px">Correos Express</text>
  <text x="156" y="140.5" fill="#1f2328">EN REPARTO</text>
  <path d="M500 176C550 176 536 116 586 116" fill="none" stroke="#9aa2ab" stroke-width="1.5"/>
  <rect x=".5" y="160.5" width="499" height="31" rx="8" fill="#f6f8fa" stroke="#d1d9e0"/>
  <text x="14" y="180.5" fill="#59636e" style="font-size: 12px">Yamato Transport</text>
  <text x="156" y="180.5" fill="#1f2328">配達中</text>
  <path d="M500 216C550 216 536 116 586 116" fill="none" stroke="#9aa2ab" stroke-width="1.5"/>
  <rect x=".5" y="200.5" width="499" height="31" rx="8" fill="#f6f8fa" stroke="#d1d9e0"/>
  <text x="14" y="220.5" fill="#59636e" style="font-size: 12px">La Poste / Colissimo</text>
  <text class="mono" x="156" y="220.5" fill="#1f2328">DISTOU</text>
  <rect x="586.5" y="97.5" width="173" height="37" rx="18.5" fill="#e6f4f0" stroke="#0b8068"/>
  <text class="mono" x="673" y="120.5" text-anchor="middle" fill="#1f2328" style="font-size: 13px">out_for_delivery</text>
  <text x="0" y="262" fill="#59636e" style="font-size: 12px">Every stage a scan can be filed under</text>
  <rect x="0.5" y="274.5" width="73" height="25" rx="13" fill="#f6f8fa" stroke="#d1d9e0"/>
  <text class="mono" x="36.5" y="291" text-anchor="middle" fill="#59636e">pending</text>
  <rect x="81.5" y="274.5" width="95" height="25" rx="13" fill="#f6f8fa" stroke="#d1d9e0"/>
  <text class="mono" x="128.5" y="291" text-anchor="middle" fill="#59636e">registered</text>
  <rect x="184.5" y="274.5" width="80" height="25" rx="13" fill="#f6f8fa" stroke="#d1d9e0"/>
  <text class="mono" x="224" y="291" text-anchor="middle" fill="#59636e">accepted</text>
  <rect x="272.5" y="274.5" width="95" height="25" rx="13" fill="#f6f8fa" stroke="#d1d9e0"/>
  <text class="mono" x="319.5" y="291" text-anchor="middle" fill="#59636e">in_transit</text>
  <rect x="375.5" y="274.5" width="139" height="25" rx="13" fill="#e6f4f0" stroke="#0b8068"/>
  <text class="mono" x="444.5" y="291" text-anchor="middle" fill="#1f2328">out_for_delivery</text>
  <rect x="522.5" y="274.5" width="88" height="25" rx="13" fill="#f6f8fa" stroke="#d1d9e0"/>
  <text class="mono" x="566" y="291" text-anchor="middle" fill="#59636e">delivered</text>
  <rect x="618.5" y="274.5" width="73" height="25" rx="13" fill="#f6f8fa" stroke="#d1d9e0"/>
  <text class="mono" x="654.5" y="291" text-anchor="middle" fill="#59636e">customs</text>
  <rect x="0.5" y="307.5" width="124" height="25" rx="13" fill="#f6f8fa" stroke="#d1d9e0"/>
  <text class="mono" x="62" y="324" text-anchor="middle" fill="#59636e">failed_attempt</text>
  <rect x="132.5" y="307.5" width="139" height="25" rx="13" fill="#f6f8fa" stroke="#d1d9e0"/>
  <text class="mono" x="201.5" y="324" text-anchor="middle" fill="#59636e">ready_for_pickup</text>
  <rect x="279.5" y="307.5" width="80" height="25" rx="13" fill="#f6f8fa" stroke="#d1d9e0"/>
  <text class="mono" x="319" y="324" text-anchor="middle" fill="#59636e">returned</text>
  <rect x="367.5" y="307.5" width="88" height="25" rx="13" fill="#f6f8fa" stroke="#d1d9e0"/>
  <text class="mono" x="411" y="324" text-anchor="middle" fill="#59636e">exception</text>
</svg>
